<svg width="45" height="52" viewBox="0 0 45 52" fill="none" xmlns="http://www.w3.org/2000/svg">
<path d="M1.27018 18.2969L1.25776 18.7694L1.72884 18.8083L14.3188 19.8483L14.7728 19.8858L14.8523 19.4372L15.646 14.9584L20.8104 12.6517L31.6612 13.833L32.5172 22.7386L25.1015 23.8946L17 24.8736L16.6091 24.9209L16.5634 25.312L15.3434 35.752L15.2786 36.3064L15.8368 36.31L28.2068 36.39L28.6257 36.3927L28.7017 35.9807L29.4643 31.846L41.2651 30.537L41.6372 30.4957L41.7024 30.127L44.2124 15.917L44.2242 15.8502L44.2178 15.7827L43.2878 5.99272L43.2582 5.68164L42.9656 5.57187L30.7056 0.971869L30.615 0.937876L30.5183 0.940139L15.9883 1.28014L15.8536 1.28329L15.7387 1.35372L6.79869 6.83371L6.78923 6.83952L6.78002 6.84574L1.69003 10.2857L1.47693 10.4298L1.47017 10.6869L1.27018 18.2969ZM14.1686 43.1552L14.0806 43.3206L14.123 43.5031L15.623 49.9631L15.7059 50.3201L16.0712 50.3485L25.3312 51.0685L25.4117 51.0748L25.49 51.0554L28.12 50.4054L28.5015 50.3111L28.5 49.9181L28.47 42.0681L28.4682 41.5921L27.9926 41.5705L15.6326 41.0105L15.317 40.9962L15.1686 41.2752L14.1686 43.1552Z" fill="#15803D" stroke="black"/>
</svg>
