<svg width="42" height="42" viewBox="0 0 42 42" fill="none" xmlns="http://www.w3.org/2000/svg">
<path d="M42 21C42 9.42078 32.5801 0 21 0C9.41992 0 0 9.42078 0 21C0 26.7198 2.48625 30.9653 7.35333 33.6529C8.32019 40.4322 11.2699 42 21 42C30.4584 42 33.5152 40.5332 34.5668 34.2244C39.4863 31.6803 42 27.2451 42 21Z" fill="#14532D"/>
<path d="M40.0899 23.4062C37.982 21.4324 36.75 18.6639 36.75 15.75C36.75 14.2596 37.0714 12.7935 37.6853 11.4407C39.3076 14.2609 40.25 17.5194 40.25 21C40.25 21.8466 40.1867 22.6402 40.0899 23.4062Z" fill="#F3F3F3"/>
<path d="M21 21C25.8325 21 29.75 17.0825 29.75 12.25C29.75 7.41751 25.8325 3.5 21 3.5C16.1675 3.5 12.25 7.41751 12.25 12.25C12.25 17.0825 16.1675 21 21 21Z" fill="#F3F3F3"/>
<path d="M4.31465 11.4407C4.9286 12.7935 5.25 14.2596 5.25 15.75C5.25 18.6417 4.03235 21.3967 1.9476 23.3681C1.83043 22.6095 1.75 21.8288 1.75 21C1.75 17.5194 2.6924 14.2609 4.31465 11.4407Z" fill="#F3F3F3"/>
<path d="M21 40.25C10.7546 40.25 9.4353 38.5863 8.87134 31.535C11.3904 28.8075 15.9944 27.125 21 27.125C26.0056 27.125 30.6096 28.8075 33.1287 31.535C32.5647 38.5863 31.2454 40.25 21 40.25Z" fill="#FEE2CC"/>
<path d="M34.8305 32.073C34.8544 31.8144 34.8823 31.5691 34.9026 31.2975C34.9197 31.0676 34.8445 30.8403 34.6958 30.6643C31.9119 27.4019 26.6636 25.375 21 25.375C15.3364 25.375 10.0881 27.4019 7.3042 30.6643C7.15552 30.8403 7.08032 31.0676 7.09741 31.2975C7.10211 31.3599 7.10916 31.4138 7.11397 31.4754C4.76454 29.9064 3.19868 27.8277 2.39514 25.2809C5.28087 22.9624 7 19.4568 7 15.75C7 13.6494 6.43048 11.6025 5.39793 9.769C8.69969 5.19533 13.9498 2.13614 19.9275 1.80438C14.6394 2.34335 10.5 6.82196 10.5 12.25C10.5 18.0401 15.21 22.75 21 22.75C26.79 22.75 31.5 18.0401 31.5 12.25C31.5 6.82196 27.3606 2.34335 22.0725 1.80438C28.0502 2.13614 33.3003 5.19533 36.6021 9.769C35.5695 11.6025 35 13.6494 35 15.75C35 19.5072 36.7593 23.0481 39.7097 25.3656C38.942 28.2655 37.3303 30.4889 34.8305 32.073Z" fill="#D32E2E"/>
<path d="M40.0899 23.4062C37.982 21.4324 36.75 18.6639 36.75 15.75C36.75 14.2596 37.0714 12.7935 37.6853 11.4407C39.3076 14.2609 40.25 17.5194 40.25 21C40.25 21.8466 40.1867 22.6402 40.0899 23.4062Z" fill="#F3F3F3"/>
<path d="M34.8305 32.073C34.8544 31.8144 34.8823 31.5691 34.9026 31.2975C34.9197 31.0676 34.8445 30.8403 34.6958 30.6643C31.9119 27.4019 26.6636 25.375 21 25.375C15.3364 25.375 10.0881 27.4019 7.3042 30.6643C7.15552 30.8403 7.08032 31.0676 7.09741 31.2975C7.10211 31.3599 7.10916 31.4138 7.11397 31.4754C4.76454 29.9064 3.19868 27.8277 2.39514 25.2809C5.28087 22.9624 7 19.4568 7 15.75C7 13.6494 6.43048 11.6025 5.39793 9.769C8.69969 5.19533 13.9498 2.13614 19.9275 1.80438C14.6394 2.34335 10.5 6.82196 10.5 12.25C10.5 18.0401 15.21 22.75 21 22.75C26.79 22.75 31.5 18.0401 31.5 12.25C31.5 6.82196 27.3606 2.34335 22.0725 1.80438C28.0502 2.13614 33.3003 5.19533 36.6021 9.769C35.5695 11.6025 35 13.6494 35 15.75C35 19.5072 36.7593 23.0481 39.7097 25.3656C38.942 28.2655 37.3303 30.4889 34.8305 32.073Z" fill="#DC2626"/>
<path d="M21 40.25C31.2454 40.25 32.5647 38.5863 33.1287 31.535C30.6096 28.8075 26.0056 27.125 21 27.125C15.9944 27.125 11.3904 28.8075 8.87134 31.535L17.4959 40.1596C18.5308 40.2218 19.6905 40.25 21 40.25Z" fill="url(#paint0_linear_59_2)"/>
<path d="M16.1875 29.75C15.5056 29.75 14.875 30.1738 14.875 33.25C14.875 36.3262 15.5056 36.75 16.1875 36.75C16.8694 36.75 17.5 36.3262 17.5 33.25C17.5 30.1738 16.8694 29.75 16.1875 29.75Z" fill="#14532D"/>
<path d="M25.8125 36.75C26.4944 36.75 27.125 36.3262 27.125 33.25C27.125 30.1738 26.4944 29.75 25.8125 29.75C25.1306 29.75 24.5 30.1738 24.5 33.25C24.5 36.3262 25.1306 36.75 25.8125 36.75Z" fill="#14532D"/>
<path opacity="0.1" d="M4.58585 22.9772C3.95833 23.826 3.23265 24.608 2.39514 25.2809C3.19868 27.8277 4.76454 29.9064 7.11397 31.4754C7.10916 31.4138 7.10211 31.3599 7.09741 31.2975C7.08032 31.0676 7.15552 30.8403 7.3042 30.6643C10.0881 27.4019 15.3364 25.375 21 25.375C26.6636 25.375 31.9119 27.4019 34.6958 30.6643C34.8445 30.8403 34.9197 31.0676 34.9026 31.2975C34.8823 31.5691 34.8544 31.8144 34.8305 32.073C37.3303 30.4889 38.942 28.2655 39.7097 25.3656C37.4611 23.5994 35.9112 21.1209 35.2978 18.3794C30.5603 22.1114 23.3628 24.5 15.3125 24.5C11.4827 24.5 7.8577 23.9453 4.58585 22.9772Z" fill="black"/>
<path d="M21 22.75C18.9233 22.75 16.8932 22.1342 15.1665 20.9804C13.4398 19.8267 12.094 18.1868 11.2993 16.2682C10.5045 14.3496 10.2966 12.2384 10.7018 10.2016C11.1069 8.16476 12.1069 6.29383 13.5754 4.82538C15.0438 3.35693 16.9148 2.3569 18.9516 1.95176C20.9884 1.54661 23.0996 1.75455 25.0182 2.54927C26.9368 3.34399 28.5767 4.6898 29.7304 6.41652C30.8842 8.14323 31.5 10.1733 31.5 12.25C31.5 15.0348 30.3938 17.7055 28.4246 19.6746C26.4555 21.6438 23.7848 22.75 21 22.75V22.75ZM21 3.36539C19.2428 3.36539 17.525 3.88646 16.064 4.86272C14.6029 5.83897 13.4641 7.22656 12.7917 8.85001C12.1192 10.4735 11.9433 12.2599 12.2861 13.9833C12.6289 15.7068 13.4751 17.2898 14.7176 18.5324C15.9602 19.7749 17.5433 20.6211 19.2667 20.9639C20.9901 21.3067 22.7765 21.1308 24.4 20.4583C26.0234 19.7859 27.411 18.6471 28.3873 17.186C29.3635 15.725 29.8846 14.0072 29.8846 12.25C29.8846 9.89366 28.9486 7.63382 27.2824 5.96763C25.6162 4.30144 23.3563 3.36539 21 3.36539Z" fill="#14532D"/>
<path d="M25.4423 17.4999C25.336 17.5006 25.2306 17.4802 25.1322 17.44C25.0338 17.3998 24.9443 17.3406 24.8688 17.2657L20.4265 12.8234C20.3516 12.7479 20.2924 12.6584 20.2522 12.56C20.212 12.4616 20.1917 12.3562 20.1923 12.2499V5.78841C20.1923 5.57419 20.2774 5.36875 20.4288 5.21728C20.5803 5.06581 20.7858 4.98071 21 4.98071C21.2142 4.98071 21.4196 5.06581 21.5711 5.21728C21.7226 5.36875 21.8077 5.57419 21.8077 5.78841V11.9188L26.0157 16.1188C26.0914 16.1939 26.1515 16.2832 26.1925 16.3816C26.2335 16.4801 26.2547 16.5856 26.2547 16.6922C26.2547 16.7989 26.2335 16.9044 26.1925 17.0029C26.1515 17.1013 26.0914 17.1906 26.0157 17.2657C25.9403 17.3406 25.8508 17.3998 25.7524 17.44C25.6539 17.4802 25.5486 17.5006 25.4423 17.4999Z" fill="#14532D"/>
<defs>
<linearGradient id="paint0_linear_59_2" x1="14.9331" y1="25.4629" x2="29.3775" y2="39.9073" gradientUnits="userSpaceOnUse">
<stop stop-color="#010101" stop-opacity="0.1"/>
<stop offset="1" stop-color="#010101" stop-opacity="0"/>
</linearGradient>
</defs>
</svg>
